<svg width="200" height="200" viewBox="0 0 200 200" xmlns="http://www.w3.org/2000/svg">
  <defs>
    <pattern id="cloudPattern" patternUnits="userSpaceOnUse" width="100" height="100">
      <path d="M25,40 C25,30 35,25 45,25 C55,25 60,35 60,40 C65,35 75,35 80,40 C85,45 85,55 80,60 C85,65 85,75 80,80 C75,85 65,85 60,80 C60,85 55,95 45,95 C35,95 25,90 25,80 C20,85 10,85 5,80 C0,75 0,65 5,60 C0,55 0,45 5,40 C10,35 20,35 25,40 Z" 
            fill="none" stroke="#8b6f4e" stroke-width="1" opacity="0.2"/>
    </pattern>
  </defs>
  <rect width="200" height="200" fill="url(#cloudPattern)" />
</svg> 